# xmcd
#
# Track frame offsets:
#	150
#	38638
#	106293
#	149403
#	193413
#	247088
#
# Disc length: 3917 seconds
#
# Revision: 2
# Processed by: cddbd v1.5.2PL0 Copyright (c) Steve Scherf et al.
# Submitted via: audiograbber 1.83.01
#
DISCID=570f4b06
DTITLE=Otto Winter - Orgel - Johann Sebastian Bach:Berühmte Orgelwerke
DYEAR=1992
DGENRE=Classical
TTITLE0=Toccata und Fuge D-Moll BWV 565
TTITLE1=Toccata, Adagio und Fuge C-Moll BWV 564
TTITLE2=Toccata und Fuge D-Moll (Dorische) BWV 538
TTITLE3=Fantasie und Fuge iG-Moll BWV 542
TTITLE4=Präludium und Fuge A-Moll BWV 543
TTITLE5=Triosonate Nr.4 E-Moll BWV 528 6.1 Adagio-Vivace 6.2. Andante 3. Un poc
TTITLE5=o Allegro
EXTD=
EXTT0=
EXTT1=
EXTT2=
EXTT3=
EXTT4=
EXTT5=
PLAYORDER=
